<mxfile host="app.diagrams.net" modified="2021-08-03T07:34:36.424Z" agent="5.0 (Windows NT 10.0; WOW64) AppleWebKit/537.36 (KHTML, like Gecko) Chrome/91.0.4472.114 Safari/537.36" etag="2ZaPYQJeer_fLSk7eruM" version="14.9.3" type="github">
  <diagram id="mBf7XqMYEkYWZMNUttf4" name="Page-1">
    <mxGraphModel dx="1497" dy="817" grid="0" gridSize="10" guides="1" tooltips="1" connect="1" arrows="1" fold="1" page="1" pageScale="1" pageWidth="1400" pageHeight="300" math="0" shadow="0">
      <root>
        <mxCell id="0" />
        <mxCell id="1" parent="0" />
        <mxCell id="mlQqfWyMBUNmMCPU1aK_-23" style="edgeStyle=orthogonalEdgeStyle;rounded=0;orthogonalLoop=1;jettySize=auto;html=1;exitX=0.25;exitY=1;exitDx=0;exitDy=0;entryX=0.5;entryY=0;entryDx=0;entryDy=0;" parent="1" source="mlQqfWyMBUNmMCPU1aK_-25" target="mlQqfWyMBUNmMCPU1aK_-26" edge="1">
          <mxGeometry relative="1" as="geometry" />
        </mxCell>
        <mxCell id="mlQqfWyMBUNmMCPU1aK_-24" style="edgeStyle=orthogonalEdgeStyle;rounded=0;orthogonalLoop=1;jettySize=auto;html=1;exitX=0.75;exitY=1;exitDx=0;exitDy=0;entryX=0.5;entryY=0;entryDx=0;entryDy=0;" parent="1" source="mlQqfWyMBUNmMCPU1aK_-25" target="mlQqfWyMBUNmMCPU1aK_-31" edge="1">
          <mxGeometry relative="1" as="geometry" />
        </mxCell>
        <mxCell id="mlQqfWyMBUNmMCPU1aK_-25" value="&lt;font style=&quot;font-size: 14px&quot;&gt;&lt;font face=&quot;Verdana&quot;&gt;&lt;b&gt;[&lt;/b&gt;&lt;/font&gt;&lt;span style=&quot;font-family: &amp;#34;verdana&amp;#34;&quot;&gt;Is it a&amp;nbsp;&lt;/span&gt;&lt;b style=&quot;font-family: &amp;#34;verdana&amp;#34;&quot;&gt;emotion&lt;/b&gt;&lt;span style=&quot;font-family: &amp;#34;verdana&amp;#34;&quot;&gt;&amp;nbsp;clause&amp;nbsp;&lt;/span&gt;&lt;b style=&quot;font-family: &amp;#34;verdana&amp;#34;&quot;&gt;;&lt;/b&gt;&lt;span style=&quot;font-family: &amp;#34;verdana&amp;#34;&quot;&gt;&amp;nbsp;&lt;b&gt;c&lt;sub&gt;i&lt;/sub&gt;]&lt;/b&gt;&lt;/span&gt;&lt;/font&gt;" style="rounded=1;whiteSpace=wrap;html=1;fillColor=#dae8fc;strokeColor=#6c8ebf;" parent="1" vertex="1">
          <mxGeometry x="622.62" y="20" width="359.5" height="30" as="geometry" />
        </mxCell>
        <mxCell id="mlQqfWyMBUNmMCPU1aK_-26" value="END" style="rounded=1;whiteSpace=wrap;html=1;" parent="1" vertex="1">
          <mxGeometry x="673.12" y="88" width="81" height="18" as="geometry" />
        </mxCell>
        <mxCell id="mlQqfWyMBUNmMCPU1aK_-27" style="edgeStyle=orthogonalEdgeStyle;rounded=0;orthogonalLoop=1;jettySize=auto;html=1;exitX=0.25;exitY=1;exitDx=0;exitDy=0;entryX=0.5;entryY=0;entryDx=0;entryDy=0;" parent="1" source="mlQqfWyMBUNmMCPU1aK_-29" target="mlQqfWyMBUNmMCPU1aK_-32" edge="1">
          <mxGeometry relative="1" as="geometry" />
        </mxCell>
        <mxCell id="mlQqfWyMBUNmMCPU1aK_-28" style="edgeStyle=orthogonalEdgeStyle;rounded=0;orthogonalLoop=1;jettySize=auto;html=1;exitX=0.75;exitY=1;exitDx=0;exitDy=0;" parent="1" source="mlQqfWyMBUNmMCPU1aK_-29" target="mlQqfWyMBUNmMCPU1aK_-34" edge="1">
          <mxGeometry relative="1" as="geometry" />
        </mxCell>
        <mxCell id="mlQqfWyMBUNmMCPU1aK_-29" value="&lt;font style=&quot;font-size: 14px&quot; face=&quot;Verdana&quot;&gt;&lt;b&gt;[&lt;/b&gt; Is it a &lt;b&gt;cause&lt;/b&gt; clause corresponding &lt;b&gt;c&lt;sub&gt;i&lt;/sub&gt;&lt;/b&gt; &lt;b&gt;;&lt;/b&gt; &lt;b&gt;c&lt;sub&gt;j&lt;/sub&gt;&amp;nbsp;]&lt;/b&gt;&lt;/font&gt;" style="rounded=1;whiteSpace=wrap;html=1;fillColor=#D5E8D4;strokeColor=#82B366;" parent="1" vertex="1">
          <mxGeometry x="622.62" y="124" width="359" height="30" as="geometry" />
        </mxCell>
        <mxCell id="mlQqfWyMBUNmMCPU1aK_-30" style="edgeStyle=orthogonalEdgeStyle;rounded=0;orthogonalLoop=1;jettySize=auto;html=1;exitX=0.5;exitY=1;exitDx=0;exitDy=0;entryX=0.75;entryY=0;entryDx=0;entryDy=0;" parent="1" source="mlQqfWyMBUNmMCPU1aK_-31" target="mlQqfWyMBUNmMCPU1aK_-29" edge="1">
          <mxGeometry relative="1" as="geometry" />
        </mxCell>
        <mxCell id="mlQqfWyMBUNmMCPU1aK_-31" value="&lt;font style=&quot;font-size: 14px&quot;&gt;emotion clause c&lt;sub&gt;i&lt;/sub&gt;&lt;/font&gt;" style="rounded=1;whiteSpace=wrap;html=1;fillColor=#fad7ac;strokeColor=#b46504;" parent="1" vertex="1">
          <mxGeometry x="830.62" y="84" width="122.5" height="26" as="geometry" />
        </mxCell>
        <mxCell id="mlQqfWyMBUNmMCPU1aK_-32" value="END" style="rounded=1;whiteSpace=wrap;html=1;" parent="1" vertex="1">
          <mxGeometry x="670.62" y="191" width="81" height="18" as="geometry" />
        </mxCell>
        <mxCell id="mlQqfWyMBUNmMCPU1aK_-34" value="&lt;font style=&quot;font-size: 14px&quot;&gt;candidate pair (c&lt;sub&gt;i&lt;/sub&gt;, c&lt;sub&gt;j&lt;/sub&gt;)&lt;/font&gt;" style="rounded=1;whiteSpace=wrap;html=1;fillColor=#fad7ac;strokeColor=#b46504;" parent="1" vertex="1">
          <mxGeometry x="816.37" y="187" width="151" height="26" as="geometry" />
        </mxCell>
        <mxCell id="mlQqfWyMBUNmMCPU1aK_-37" value="&lt;b&gt;First Turn&lt;/b&gt;" style="text;html=1;strokeColor=none;fillColor=none;align=center;verticalAlign=middle;whiteSpace=wrap;rounded=0;" parent="1" vertex="1">
          <mxGeometry x="511.62" y="25" width="97" height="20" as="geometry" />
        </mxCell>
        <mxCell id="mlQqfWyMBUNmMCPU1aK_-38" value="&lt;b&gt;Second Turn&lt;/b&gt;" style="text;html=1;strokeColor=none;fillColor=none;align=center;verticalAlign=middle;whiteSpace=wrap;rounded=0;" parent="1" vertex="1">
          <mxGeometry x="511.62" y="129" width="100.25" height="20" as="geometry" />
        </mxCell>
        <mxCell id="mlQqfWyMBUNmMCPU1aK_-40" value="No" style="text;html=1;strokeColor=none;fillColor=none;align=center;verticalAlign=middle;whiteSpace=wrap;rounded=0;" parent="1" vertex="1">
          <mxGeometry x="718.62" y="162" width="40" height="20" as="geometry" />
        </mxCell>
        <mxCell id="mlQqfWyMBUNmMCPU1aK_-41" value="Yes" style="text;html=1;strokeColor=none;fillColor=none;align=center;verticalAlign=middle;whiteSpace=wrap;rounded=0;" parent="1" vertex="1">
          <mxGeometry x="901.62" y="162" width="40" height="20" as="geometry" />
        </mxCell>
        <mxCell id="mlQqfWyMBUNmMCPU1aK_-43" value="No" style="text;html=1;strokeColor=none;fillColor=none;align=center;verticalAlign=middle;whiteSpace=wrap;rounded=0;" parent="1" vertex="1">
          <mxGeometry x="718.62" y="59" width="40" height="20" as="geometry" />
        </mxCell>
        <mxCell id="mlQqfWyMBUNmMCPU1aK_-44" value="Yes" style="text;html=1;strokeColor=none;fillColor=none;align=center;verticalAlign=middle;whiteSpace=wrap;rounded=0;" parent="1" vertex="1">
          <mxGeometry x="901.62" y="59" width="40" height="20" as="geometry" />
        </mxCell>
        <mxCell id="mlQqfWyMBUNmMCPU1aK_-45" style="edgeStyle=orthogonalEdgeStyle;rounded=0;orthogonalLoop=1;jettySize=auto;html=1;exitX=0.25;exitY=1;exitDx=0;exitDy=0;entryX=0.5;entryY=0;entryDx=0;entryDy=0;" parent="1" source="mlQqfWyMBUNmMCPU1aK_-47" target="mlQqfWyMBUNmMCPU1aK_-48" edge="1">
          <mxGeometry relative="1" as="geometry" />
        </mxCell>
        <mxCell id="mlQqfWyMBUNmMCPU1aK_-46" style="edgeStyle=orthogonalEdgeStyle;rounded=0;orthogonalLoop=1;jettySize=auto;html=1;exitX=0.75;exitY=1;exitDx=0;exitDy=0;entryX=0.5;entryY=0;entryDx=0;entryDy=0;" parent="1" source="mlQqfWyMBUNmMCPU1aK_-47" target="mlQqfWyMBUNmMCPU1aK_-53" edge="1">
          <mxGeometry relative="1" as="geometry" />
        </mxCell>
        <mxCell id="mlQqfWyMBUNmMCPU1aK_-47" value="&lt;font style=&quot;font-size: 14px&quot;&gt;&lt;font face=&quot;Verdana&quot;&gt;&lt;b&gt;[&lt;/b&gt;&lt;/font&gt;&lt;span style=&quot;font-family: &amp;#34;verdana&amp;#34;&quot;&gt;Is it a&amp;nbsp;&lt;/span&gt;&lt;b style=&quot;font-family: &amp;#34;verdana&amp;#34;&quot;&gt;cause&lt;/b&gt;&lt;span style=&quot;font-family: &amp;#34;verdana&amp;#34;&quot;&gt;&amp;nbsp;clause&amp;nbsp;&lt;/span&gt;&lt;b style=&quot;font-family: &amp;#34;verdana&amp;#34;&quot;&gt;;&lt;/b&gt;&lt;span style=&quot;font-family: &amp;#34;verdana&amp;#34;&quot;&gt;&amp;nbsp;&lt;b&gt;c&lt;sub&gt;i&lt;/sub&gt;]&lt;/b&gt;&lt;/span&gt;&lt;/font&gt;" style="rounded=1;whiteSpace=wrap;html=1;fillColor=#D5E8D4;strokeColor=#82B366;" parent="1" vertex="1">
          <mxGeometry x="994.62" y="18" width="359.5" height="30" as="geometry" />
        </mxCell>
        <mxCell id="mlQqfWyMBUNmMCPU1aK_-48" value="END" style="rounded=1;whiteSpace=wrap;html=1;" parent="1" vertex="1">
          <mxGeometry x="1045.12" y="86" width="81" height="18" as="geometry" />
        </mxCell>
        <mxCell id="mlQqfWyMBUNmMCPU1aK_-49" style="edgeStyle=orthogonalEdgeStyle;rounded=0;orthogonalLoop=1;jettySize=auto;html=1;exitX=0.25;exitY=1;exitDx=0;exitDy=0;entryX=0.5;entryY=0;entryDx=0;entryDy=0;" parent="1" source="mlQqfWyMBUNmMCPU1aK_-51" target="mlQqfWyMBUNmMCPU1aK_-54" edge="1">
          <mxGeometry relative="1" as="geometry" />
        </mxCell>
        <mxCell id="mlQqfWyMBUNmMCPU1aK_-50" style="edgeStyle=orthogonalEdgeStyle;rounded=0;orthogonalLoop=1;jettySize=auto;html=1;exitX=0.75;exitY=1;exitDx=0;exitDy=0;" parent="1" source="mlQqfWyMBUNmMCPU1aK_-51" target="mlQqfWyMBUNmMCPU1aK_-55" edge="1">
          <mxGeometry relative="1" as="geometry" />
        </mxCell>
        <mxCell id="mlQqfWyMBUNmMCPU1aK_-51" value="&lt;font style=&quot;font-size: 14px&quot; face=&quot;Verdana&quot;&gt;&lt;b&gt;[&lt;/b&gt; Is it a &lt;b&gt;emotion&lt;/b&gt; clause corresponding &lt;b&gt;c&lt;sub&gt;i&lt;/sub&gt;&lt;/b&gt; &lt;b&gt;;&lt;/b&gt; &lt;b&gt;c&lt;sub&gt;j&lt;/sub&gt;&amp;nbsp;]&lt;/b&gt;&lt;/font&gt;" style="rounded=1;whiteSpace=wrap;html=1;fillColor=#DAE8FC;strokeColor=#6C8EBF;" parent="1" vertex="1">
          <mxGeometry x="994.62" y="122" width="359" height="30" as="geometry" />
        </mxCell>
        <mxCell id="mlQqfWyMBUNmMCPU1aK_-52" style="edgeStyle=orthogonalEdgeStyle;rounded=0;orthogonalLoop=1;jettySize=auto;html=1;exitX=0.5;exitY=1;exitDx=0;exitDy=0;entryX=0.75;entryY=0;entryDx=0;entryDy=0;" parent="1" source="mlQqfWyMBUNmMCPU1aK_-53" target="mlQqfWyMBUNmMCPU1aK_-51" edge="1">
          <mxGeometry relative="1" as="geometry" />
        </mxCell>
        <mxCell id="mlQqfWyMBUNmMCPU1aK_-53" value="&lt;font style=&quot;font-size: 14px&quot;&gt;cause clause c&lt;sub&gt;i&lt;/sub&gt;&lt;/font&gt;" style="rounded=1;whiteSpace=wrap;html=1;fillColor=#fad7ac;strokeColor=#b46504;" parent="1" vertex="1">
          <mxGeometry x="1202.62" y="82" width="122.5" height="26" as="geometry" />
        </mxCell>
        <mxCell id="mlQqfWyMBUNmMCPU1aK_-54" value="END" style="rounded=1;whiteSpace=wrap;html=1;" parent="1" vertex="1">
          <mxGeometry x="1042.62" y="189" width="81" height="18" as="geometry" />
        </mxCell>
        <mxCell id="mlQqfWyMBUNmMCPU1aK_-55" value="&lt;font style=&quot;font-size: 14px&quot;&gt;candidate pair (c&lt;sub&gt;i&lt;/sub&gt;, c&lt;sub&gt;j&lt;/sub&gt;)&lt;/font&gt;" style="rounded=1;whiteSpace=wrap;html=1;fillColor=#fad7ac;strokeColor=#b46504;" parent="1" vertex="1">
          <mxGeometry x="1188.37" y="185" width="151" height="26" as="geometry" />
        </mxCell>
        <mxCell id="mlQqfWyMBUNmMCPU1aK_-58" value="No" style="text;html=1;strokeColor=none;fillColor=none;align=center;verticalAlign=middle;whiteSpace=wrap;rounded=0;" parent="1" vertex="1">
          <mxGeometry x="1090.62" y="160" width="40" height="20" as="geometry" />
        </mxCell>
        <mxCell id="mlQqfWyMBUNmMCPU1aK_-59" value="Yes" style="text;html=1;strokeColor=none;fillColor=none;align=center;verticalAlign=middle;whiteSpace=wrap;rounded=0;" parent="1" vertex="1">
          <mxGeometry x="1273.62" y="160" width="40" height="20" as="geometry" />
        </mxCell>
        <mxCell id="mlQqfWyMBUNmMCPU1aK_-60" value="No" style="text;html=1;strokeColor=none;fillColor=none;align=center;verticalAlign=middle;whiteSpace=wrap;rounded=0;" parent="1" vertex="1">
          <mxGeometry x="1090.62" y="57" width="40" height="20" as="geometry" />
        </mxCell>
        <mxCell id="mlQqfWyMBUNmMCPU1aK_-61" value="Yes" style="text;html=1;strokeColor=none;fillColor=none;align=center;verticalAlign=middle;whiteSpace=wrap;rounded=0;" parent="1" vertex="1">
          <mxGeometry x="1273.62" y="57" width="40" height="20" as="geometry" />
        </mxCell>
        <mxCell id="mlQqfWyMBUNmMCPU1aK_-62" value="" style="endArrow=none;dashed=1;html=1;dashPattern=1 3;strokeWidth=2;" parent="1" edge="1">
          <mxGeometry width="50" height="50" relative="1" as="geometry">
            <mxPoint x="508" y="9" as="sourcePoint" />
            <mxPoint x="508" y="292" as="targetPoint" />
          </mxGeometry>
        </mxCell>
        <mxCell id="p34tNjYk5PUZNEn6N0vp-2" value="&lt;font size=&quot;1&quot;&gt;&lt;b style=&quot;font-size: 16px&quot;&gt;Direction: Emotion to Cause&lt;/b&gt;&lt;/font&gt;" style="text;html=1;strokeColor=none;fillColor=none;align=center;verticalAlign=middle;whiteSpace=wrap;rounded=0;" vertex="1" parent="1">
          <mxGeometry x="673.12" y="235" width="244" height="44" as="geometry" />
        </mxCell>
        <mxCell id="p34tNjYk5PUZNEn6N0vp-3" value="&lt;font size=&quot;1&quot;&gt;&lt;b style=&quot;font-size: 16px&quot;&gt;Direction: Cause to Emotion&lt;/b&gt;&lt;/font&gt;" style="text;html=1;strokeColor=none;fillColor=none;align=center;verticalAlign=middle;whiteSpace=wrap;rounded=0;" vertex="1" parent="1">
          <mxGeometry x="1045.12" y="233" width="244" height="44" as="geometry" />
        </mxCell>
        <mxCell id="p34tNjYk5PUZNEn6N0vp-4" style="edgeStyle=orthogonalEdgeStyle;rounded=0;orthogonalLoop=1;jettySize=auto;html=1;exitX=0.25;exitY=1;exitDx=0;exitDy=0;entryX=0.5;entryY=0;entryDx=0;entryDy=0;" edge="1" parent="1" source="p34tNjYk5PUZNEn6N0vp-6" target="p34tNjYk5PUZNEn6N0vp-7">
          <mxGeometry relative="1" as="geometry" />
        </mxCell>
        <mxCell id="p34tNjYk5PUZNEn6N0vp-5" style="edgeStyle=orthogonalEdgeStyle;rounded=0;orthogonalLoop=1;jettySize=auto;html=1;exitX=0.75;exitY=1;exitDx=0;exitDy=0;entryX=0.5;entryY=0;entryDx=0;entryDy=0;" edge="1" parent="1" source="p34tNjYk5PUZNEn6N0vp-6" target="p34tNjYk5PUZNEn6N0vp-12">
          <mxGeometry relative="1" as="geometry" />
        </mxCell>
        <mxCell id="p34tNjYk5PUZNEn6N0vp-6" value="&lt;font style=&quot;font-size: 14px&quot;&gt;&lt;font face=&quot;Verdana&quot;&gt;&lt;b&gt;[&lt;/b&gt;&lt;/font&gt;&lt;span style=&quot;font-family: &amp;#34;verdana&amp;#34;&quot;&gt;Is it a&amp;nbsp;&lt;/span&gt;&lt;b style=&quot;font-family: &amp;#34;verdana&amp;#34;&quot;&gt;emotion&lt;/b&gt;&lt;span style=&quot;font-family: &amp;#34;verdana&amp;#34;&quot;&gt;&amp;nbsp;clause&amp;nbsp;&lt;/span&gt;&lt;b style=&quot;font-family: &amp;#34;verdana&amp;#34;&quot;&gt;;&lt;/b&gt;&lt;span style=&quot;font-family: &amp;#34;verdana&amp;#34;&quot;&gt;&amp;nbsp;&lt;b&gt;c&lt;sub&gt;i&lt;/sub&gt;]&lt;/b&gt;&lt;/span&gt;&lt;/font&gt;" style="rounded=1;whiteSpace=wrap;html=1;fillColor=#dae8fc;strokeColor=#6c8ebf;" vertex="1" parent="1">
          <mxGeometry x="103.62" y="18" width="359.5" height="30" as="geometry" />
        </mxCell>
        <mxCell id="p34tNjYk5PUZNEn6N0vp-7" value="END" style="rounded=1;whiteSpace=wrap;html=1;" vertex="1" parent="1">
          <mxGeometry x="154.12" y="86" width="81" height="18" as="geometry" />
        </mxCell>
        <mxCell id="p34tNjYk5PUZNEn6N0vp-8" style="edgeStyle=orthogonalEdgeStyle;rounded=0;orthogonalLoop=1;jettySize=auto;html=1;exitX=0.25;exitY=1;exitDx=0;exitDy=0;entryX=0.5;entryY=0;entryDx=0;entryDy=0;" edge="1" parent="1" source="p34tNjYk5PUZNEn6N0vp-10" target="p34tNjYk5PUZNEn6N0vp-13">
          <mxGeometry relative="1" as="geometry" />
        </mxCell>
        <mxCell id="p34tNjYk5PUZNEn6N0vp-9" style="edgeStyle=orthogonalEdgeStyle;rounded=0;orthogonalLoop=1;jettySize=auto;html=1;exitX=0.75;exitY=1;exitDx=0;exitDy=0;" edge="1" parent="1" source="p34tNjYk5PUZNEn6N0vp-10" target="p34tNjYk5PUZNEn6N0vp-15">
          <mxGeometry relative="1" as="geometry" />
        </mxCell>
        <mxCell id="p34tNjYk5PUZNEn6N0vp-10" value="&lt;font style=&quot;font-size: 14px&quot; face=&quot;Verdana&quot;&gt;&lt;b&gt;[&lt;/b&gt; Is it a &lt;b&gt;cause&lt;/b&gt; clause corresponding &lt;b&gt;c&lt;sub&gt;i&lt;/sub&gt;&lt;/b&gt; &lt;b&gt;;&lt;/b&gt; &lt;b&gt;c&lt;sub&gt;j&lt;/sub&gt;&amp;nbsp;]&lt;/b&gt;&lt;/font&gt;" style="rounded=1;whiteSpace=wrap;html=1;fillColor=#d5e8d4;strokeColor=#82b366;" vertex="1" parent="1">
          <mxGeometry x="103.62" y="122" width="359" height="30" as="geometry" />
        </mxCell>
        <mxCell id="p34tNjYk5PUZNEn6N0vp-11" style="edgeStyle=orthogonalEdgeStyle;rounded=0;orthogonalLoop=1;jettySize=auto;html=1;exitX=0.5;exitY=1;exitDx=0;exitDy=0;entryX=0.75;entryY=0;entryDx=0;entryDy=0;" edge="1" parent="1" source="p34tNjYk5PUZNEn6N0vp-12" target="p34tNjYk5PUZNEn6N0vp-10">
          <mxGeometry relative="1" as="geometry" />
        </mxCell>
        <mxCell id="p34tNjYk5PUZNEn6N0vp-12" value="&lt;font style=&quot;font-size: 14px&quot;&gt;emotion clause c&lt;sub&gt;i&lt;/sub&gt;&lt;/font&gt;" style="rounded=1;whiteSpace=wrap;html=1;fillColor=#fad7ac;strokeColor=#b46504;" vertex="1" parent="1">
          <mxGeometry x="311.62" y="82" width="122.5" height="26" as="geometry" />
        </mxCell>
        <mxCell id="p34tNjYk5PUZNEn6N0vp-13" value="END" style="rounded=1;whiteSpace=wrap;html=1;" vertex="1" parent="1">
          <mxGeometry x="151.62" y="189" width="81" height="18" as="geometry" />
        </mxCell>
        <mxCell id="p34tNjYk5PUZNEn6N0vp-14" style="edgeStyle=orthogonalEdgeStyle;rounded=0;orthogonalLoop=1;jettySize=auto;html=1;exitX=0.5;exitY=1;exitDx=0;exitDy=0;entryX=0.75;entryY=0;entryDx=0;entryDy=0;dashed=1;endArrow=block;endFill=0;" edge="1" parent="1" source="p34tNjYk5PUZNEn6N0vp-15" target="p34tNjYk5PUZNEn6N0vp-17">
          <mxGeometry relative="1" as="geometry" />
        </mxCell>
        <mxCell id="p34tNjYk5PUZNEn6N0vp-15" value="&lt;font style=&quot;font-size: 14px&quot;&gt;candidate pair (c&lt;sub&gt;i&lt;/sub&gt;, c&lt;sub&gt;j&lt;/sub&gt;)&lt;/font&gt;" style="rounded=1;whiteSpace=wrap;html=1;fillColor=#fad7ac;strokeColor=#b46504;" vertex="1" parent="1">
          <mxGeometry x="297.37" y="185" width="151" height="26" as="geometry" />
        </mxCell>
        <mxCell id="p34tNjYk5PUZNEn6N0vp-16" style="edgeStyle=orthogonalEdgeStyle;rounded=0;orthogonalLoop=1;jettySize=auto;html=1;entryX=1;entryY=0.5;entryDx=0;entryDy=0;dashed=1;endArrow=open;endFill=0;fillColor=#e1d5e7;strokeColor=#9673a6;" edge="1" parent="1" source="p34tNjYk5PUZNEn6N0vp-17" target="p34tNjYk5PUZNEn6N0vp-12">
          <mxGeometry relative="1" as="geometry">
            <Array as="points">
              <mxPoint x="283.62" y="285" />
              <mxPoint x="480.62" y="285" />
              <mxPoint x="480.62" y="95" />
            </Array>
          </mxGeometry>
        </mxCell>
        <mxCell id="p34tNjYk5PUZNEn6N0vp-17" value="&lt;font style=&quot;font-size: 14px&quot; face=&quot;Verdana&quot;&gt;&lt;b&gt;[&lt;/b&gt; Is it a &lt;b&gt;emotion&lt;/b&gt; clause corresponding &lt;b&gt;c&lt;sub&gt;j&lt;/sub&gt;&lt;/b&gt;&amp;nbsp;&lt;b&gt;;&lt;/b&gt; &lt;b&gt;c&lt;sub&gt;i&lt;/sub&gt;&amp;nbsp;]&lt;/b&gt;&lt;/font&gt;" style="rounded=1;whiteSpace=wrap;html=1;fillColor=#e1d5e7;strokeColor=#9673a6;" vertex="1" parent="1">
          <mxGeometry x="104.12" y="228" width="359" height="30" as="geometry" />
        </mxCell>
        <mxCell id="p34tNjYk5PUZNEn6N0vp-18" value="&lt;b&gt;First Turn&lt;/b&gt;" style="text;html=1;strokeColor=none;fillColor=none;align=center;verticalAlign=middle;whiteSpace=wrap;rounded=0;" vertex="1" parent="1">
          <mxGeometry x="0.25000000000000266" y="23" width="97" height="20" as="geometry" />
        </mxCell>
        <mxCell id="p34tNjYk5PUZNEn6N0vp-19" value="&lt;b&gt;Second Turn&lt;/b&gt;" style="text;html=1;strokeColor=none;fillColor=none;align=center;verticalAlign=middle;whiteSpace=wrap;rounded=0;" vertex="1" parent="1">
          <mxGeometry y="127" width="100.25" height="20" as="geometry" />
        </mxCell>
        <mxCell id="p34tNjYk5PUZNEn6N0vp-20" value="&lt;b&gt;Third Turn&lt;/b&gt;" style="text;html=1;strokeColor=none;fillColor=none;align=center;verticalAlign=middle;whiteSpace=wrap;rounded=0;" vertex="1" parent="1">
          <mxGeometry x="0.8700000000000001" y="233" width="98.5" height="20" as="geometry" />
        </mxCell>
        <mxCell id="p34tNjYk5PUZNEn6N0vp-21" value="&lt;b&gt;No&lt;/b&gt;" style="text;html=1;strokeColor=none;fillColor=none;align=center;verticalAlign=middle;whiteSpace=wrap;rounded=0;" vertex="1" parent="1">
          <mxGeometry x="199.62" y="160" width="40" height="20" as="geometry" />
        </mxCell>
        <mxCell id="p34tNjYk5PUZNEn6N0vp-22" value="&lt;b&gt;Yes&lt;/b&gt;" style="text;html=1;strokeColor=none;fillColor=none;align=center;verticalAlign=middle;whiteSpace=wrap;rounded=0;" vertex="1" parent="1">
          <mxGeometry x="382.62" y="160" width="40" height="20" as="geometry" />
        </mxCell>
        <mxCell id="p34tNjYk5PUZNEn6N0vp-23" value="&lt;b&gt;Rethink&lt;/b&gt;" style="text;html=1;strokeColor=none;fillColor=none;align=center;verticalAlign=middle;whiteSpace=wrap;rounded=0;" vertex="1" parent="1">
          <mxGeometry x="375.25" y="266" width="54.75" height="20" as="geometry" />
        </mxCell>
        <mxCell id="p34tNjYk5PUZNEn6N0vp-24" value="&lt;b&gt;No&lt;/b&gt;" style="text;html=1;strokeColor=none;fillColor=none;align=center;verticalAlign=middle;whiteSpace=wrap;rounded=0;" vertex="1" parent="1">
          <mxGeometry x="199.62" y="57" width="40" height="20" as="geometry" />
        </mxCell>
        <mxCell id="p34tNjYk5PUZNEn6N0vp-25" value="&lt;b&gt;Yes&lt;/b&gt;" style="text;html=1;strokeColor=none;fillColor=none;align=center;verticalAlign=middle;whiteSpace=wrap;rounded=0;" vertex="1" parent="1">
          <mxGeometry x="382.62" y="57" width="40" height="20" as="geometry" />
        </mxCell>
      </root>
    </mxGraphModel>
  </diagram>
</mxfile>
